<?xml version="1.0" standalone="no"?>
<!DOCTYPE svg PUBLIC "-//W3C//DTD SVG 20010904//EN"
 "http://www.w3.org/TR/2001/REC-SVG-20010904/DTD/svg10.dtd">
<svg version="1.0" xmlns="http://www.w3.org/2000/svg"
 width="283.000000pt" height="283.000000pt" viewBox="0 0 283.000000 283.000000"
 preserveAspectRatio="xMidYMid meet">
<metadata>
Created by potrace 1.11, written by Peter Selinger 2001-2013
</metadata>
<g transform="translate(0.000000,283.000000) scale(0.100000,-0.100000)"
fill="#000000" stroke="none">
<path d="M860 2741 c0 -5 71 -11 158 -13 127 -3 163 -7 190 -21 46 -25 72 -72
72 -130 0 -33 -100 -399 -320 -1170 -176 -617 -327 -1140 -335 -1162 -21 -58
-68 -110 -122 -136 -40 -19 -69 -23 -212 -29 -91 -4 333 -6 943 -6 l1110 1
103 345 c203 677 230 770 224 770 -3 0 -17 -30 -30 -67 -35 -99 -131 -286
-199 -389 -231 -351 -512 -559 -852 -630 -66 -14 -135 -18 -305 -18 -284 -1
-306 7 -290 106 14 81 664 2339 687 2384 12 26 42 64 66 85 68 59 110 69 304
69 105 0 168 4 168 10 0 7 -233 10 -680 10 -403 0 -680 -4 -680 -9z"/>
</g>
</svg>
